/* XPM */
static char *xpm_[] = {
/* columns rows colors chars-per-pixel */
"36 36 2 1 ",
"  c #FF0000",
"a c #000000",
/* pixels */
"aaaaaaaaaaaaaaaaaaaaaaaaaaaaaaaaaaaa",
"a       aa       aa       aa       a",
"a       aa       aa       aa       a",
"a       aa       aa       aa       a",
"a       aa       aa       aa       a",
"a       aa       aa       aa       a",
"a       aa       aa       aa       a",
"a       aa       aa       aa       a",
"aaaaaaaaaaaaaaaaaaaaaaaaaaaaaaaaaaaa",
"aaaaaaaaaaaaaaaaaaaaaaaaaaaaaaaaaaaa",
"a       aa       aa       aa       a",
"a       aa       aa       aa       a",
"a       aa       aa       aa       a",
"a       aa       aa       aa       a",
"a       aa       aa       aa       a",
"a       aa       aa       aa       a",
"a       aa       aa       aa       a",
"aaaaaaaaaaaaaaaaaaaaaaaaaaaaaaaaaaaa",
"aaaaaaaaaaaaaaaaaaaaaaaaaaaaaaaaaaaa",
"a       aa       aa       aa       a",
"a       aa       aa       aa       a",
"a       aa       aa       aa       a",
"a       aa       aa       aa       a",
"a       aa       aa       aa       a",
"a       aa       aa       aa       a",
"a       aa       aa       aa       a",
"aaaaaaaaaaaaaaaaaaaaaaaaaaaaaaaaaaaa",
"aaaaaaaaaaaaaaaaaaaaaaaaaaaaaaaaaaaa",
"a       aa       aa       aa       a",
"a       aa       aa       aa       a",
"a       aa       aa       aa       a",
"a       aa       aa       aa       a",
"a       aa       aa       aa       a",
"a       aa       aa       aa       a",
"a       aa       aa       aa       a",
"aaaaaaaaaaaaaaaaaaaaaaaaaaaaaaaaaaaa"
};